<?xml version="1.0" encoding="UTF-8"?>
<svg version="1.1" xmlns="http://www.w3.org/2000/svg" width="300" height="168">
<path d="M0 0 C1.92967681 1.39853804 3.73038043 2.87425571 5.53515625 4.4296875 C6.24671875 4.98785156 6.95828125 5.54601562 7.69140625 6.12109375 C21.39174218 17.35818435 30.53307347 35.09170944 33.53515625 52.4296875 C33.77746964 56.44805122 33.76622633 60.46721337 33.78515625 64.4921875 C33.81609375 66.09610352 33.81609375 66.09610352 33.84765625 67.73242188 C33.9420661 87.26345886 25.62713277 106.66347793 11.97265625 120.6171875 C1.1222833 131.18544037 -11.05467433 137.98383156 -25.46484375 142.4296875 C-26.29886719 142.69523438 -27.13289063 142.96078125 -27.9921875 143.234375 C-47.31854308 148.19333443 -69.57576586 143.52868944 -86.51953125 133.6484375 C-107.08465628 120.46163977 -118.845825 103.11770772 -124.46484375 79.4296875 C-128.08543953 57.99194933 -122.87328209 36.24932451 -110.46484375 18.4296875 C-104.70384372 11.13121493 -98.15212696 4.68583344 -90.46484375 -0.5703125 C-89.40136719 -1.33408203 -89.40136719 -1.33408203 -88.31640625 -2.11328125 C-61.40539952 -19.97741371 -26.31933679 -16.7676282 0 0 Z M-96.109375 20.62890625 C-108.27936576 35.09969128 -113.8638783 52.61041633 -112.46484375 71.4296875 C-110.32500092 90.4548356 -101.92709278 105.63693258 -87.359375 118.2578125 C-71.47070053 130.1796789 -53.72624345 133.71460302 -34.12988281 131.12060547 C-21.53460621 128.92022582 -8.10802274 123.17898762 0.53515625 113.4296875 C0.53515625 112.7696875 0.53515625 112.1096875 0.53515625 111.4296875 C1.52515625 111.0996875 2.51515625 110.7696875 3.53515625 110.4296875 C15.14107224 97.0513199 21.66419826 80.21209917 20.53515625 62.4296875 C17.66992664 61.61304805 15.12536037 61.30344121 12.1496582 61.30029297 C11.29229568 61.29714081 10.43493317 61.29398865 9.55158997 61.29074097 C8.1764045 61.29377731 8.1764045 61.29377731 6.7734375 61.296875 C5.82703903 61.29591827 4.88064056 61.29496155 3.90556335 61.29397583 C1.90929091 61.29329625 -0.08698377 61.29513507 -2.08325195 61.29931641 C-5.15125432 61.30468559 -8.21911146 61.29935478 -11.28710938 61.29296875 C-13.22526074 61.29362922 -15.16341202 61.29490974 -17.1015625 61.296875 C-18.02442551 61.29485077 -18.94728851 61.29282654 -19.89811707 61.29074097 C-24.00602531 60.88440902 -24.00602531 60.88440902 -27.46484375 62.4296875 C-27.46484375 64.4096875 -27.46484375 66.3896875 -27.46484375 68.4296875 C-7.16984375 68.9246875 -7.16984375 68.9246875 13.53515625 69.4296875 C11.13776962 83.81400726 7.71395556 93.22301392 -1.46484375 104.4296875 C-1.985625 105.07679687 -2.50640625 105.72390625 -3.04296875 106.390625 C-10.06381463 114.22702368 -21.31376097 119.98777693 -31.46484375 122.4296875 C-32.19445312 122.61144531 -32.9240625 122.79320312 -33.67578125 122.98046875 C-50.43794393 125.68025686 -66.03931048 122.13912435 -80.46484375 113.4296875 C-92.8128631 104.34976604 -101.98520499 90.66688798 -104.46484375 75.4296875 C-105.92742752 58.14310414 -103.00365765 42.80403206 -92.39453125 28.671875 C-78.61713504 12.52417407 -62.72953771 7.89268884 -42.46484375 5.4296875 C-42.46484375 3.1196875 -42.46484375 0.8096875 -42.46484375 -1.5703125 C-62.8654067 -2.64402634 -82.10704731 5.95874099 -96.109375 20.62890625 Z M-79.46484375 34.4296875 C-81.20873892 37.74153568 -81.20873892 37.74153568 -81.46484375 41.4296875 C-79.77231789 44.63339717 -78.01393992 46.88059133 -75.46484375 49.4296875 C-69.65032484 50.00831805 -69.65032484 50.00831805 -64.52734375 47.5546875 C-61.42477442 44.35810092 -60.99323202 41.95810475 -61.05859375 37.47265625 C-61.3676161 35.04871626 -61.3676161 35.04871626 -64.02734375 32.4296875 C-70.01809109 28.94416178 -74.75027628 29.17631232 -79.46484375 34.4296875 Z M-49.46484375 30.4296875 C-49.48796941 39.40889527 -49.50575998 48.38809287 -49.51665592 57.36732388 C-49.52188426 61.53631578 -49.52898101 65.70528737 -49.5402832 69.87426758 C-49.55111383 73.89426436 -49.55712096 77.91424155 -49.55972099 81.93425179 C-49.56157493 83.47131725 -49.56519494 85.00838159 -49.57057381 86.54543877 C-49.57778659 88.69104237 -49.57883459 90.83656405 -49.57836914 92.98217773 C-49.58058975 94.20573471 -49.58281036 95.42929169 -49.58509827 96.68992615 C-49.77770303 99.3419682 -49.77770303 99.3419682 -48.46484375 100.4296875 C-46.91528816 100.52868273 -45.36130702 100.56048274 -43.80859375 100.5625 C-42.86886719 100.56378906 -41.92914063 100.56507812 -40.9609375 100.56640625 C-39.47787109 100.56060547 -39.47787109 100.56060547 -37.96484375 100.5546875 C-36.48177734 100.56048828 -36.48177734 100.56048828 -34.96875 100.56640625 C-33.55916016 100.56447266 -33.55916016 100.56447266 -32.12109375 100.5625 C-30.81881836 100.56080811 -30.81881836 100.56080811 -29.49023438 100.55908203 C-27.46880221 100.6538412 -27.46880221 100.6538412 -26.46484375 99.4296875 C-26.46484375 97.4496875 -26.46484375 95.4696875 -26.46484375 93.4296875 C-31.41484375 93.0996875 -36.36484375 92.7696875 -41.46484375 92.4296875 C-41.46484375 71.9696875 -41.46484375 51.5096875 -41.46484375 30.4296875 C-44.75461183 29.33309814 -46.17788142 29.63015612 -49.46484375 30.4296875 Z " fill="#E61345" transform="translate(195.46484375,18.5703125)"/>
<path d="M0 0 C0.99902344 -0.00128906 1.99804688 -0.00257813 3.02734375 -0.00390625 C4.05988281 -0.00003906 5.09242188 0.00382813 6.15625 0.0078125 C7.18878906 0.00394531 8.22132813 0.00007812 9.28515625 -0.00390625 C10.28417969 -0.00261719 11.28320312 -0.00132812 12.3125 0 C13.21806641 0.00112793 14.12363281 0.00225586 15.05664062 0.00341797 C17.67987019 0.13398819 20.09816438 0.55211092 22.65625 1.1328125 C22.65625 1.4628125 22.65625 1.7928125 22.65625 2.1328125 C21.81030273 2.20798096 20.96435547 2.28314941 20.09277344 2.3605957 C16.89378632 2.64944773 13.69573405 2.94687634 10.49804688 3.24975586 C9.12530759 3.37808968 7.75226214 3.50319799 6.37890625 3.62475586 C-5.43488125 4.67400672 -16.77156598 6.23436124 -27.40625 11.7578125 C-28.08107422 12.10336182 -28.75589844 12.44891113 -29.45117188 12.80493164 C-47.75112619 22.51862052 -59.89426233 38.70439716 -66.34375 58.1328125 C-67.21813375 61.15891652 -67.5259162 63.9721348 -67.66015625 67.1171875 C-67.70205078 68.05175781 -67.74394531 68.98632812 -67.78710938 69.94921875 C-67.82642578 70.91730469 -67.86574219 71.88539062 -67.90625 72.8828125 C-67.97102539 74.35814453 -67.97102539 74.35814453 -68.03710938 75.86328125 C-68.14297052 78.28632525 -68.24505171 80.7094679 -68.34375 83.1328125 C-67.02375 83.1328125 -65.70375 83.1328125 -64.34375 83.1328125 C-64.405625 81.7096875 -64.405625 81.7096875 -64.46875 80.2578125 C-64.34375 77.1328125 -64.34375 77.1328125 -62.34375 75.1328125 C-61.66723793 72.93576739 -61.66723793 72.93576739 -61.21875 70.5078125 C-61.05117187 69.69054687 -60.88359375 68.87328125 -60.7109375 68.03125 C-60.58976562 67.40476562 -60.46859375 66.77828125 -60.34375 66.1328125 C-60.01375 66.1328125 -59.68375 66.1328125 -59.34375 66.1328125 C-59.37855469 67.31875 -59.41335937 68.5046875 -59.44921875 69.7265625 C-59.92307317 92.63587585 -55.4248224 110.13522059 -39.36328125 127.2421875 C-26.30540122 139.88358731 -10.1616744 144.65336827 7.65234375 144.55517578 C22.67652472 144.14410645 36.00918788 139.90131622 47.65625 130.1328125 C48.31625 130.1328125 48.97625 130.1328125 49.65625 130.1328125 C49.98625 129.1428125 50.31625 128.1528125 50.65625 127.1328125 C51.31625 127.1328125 51.97625 127.1328125 52.65625 127.1328125 C52.65625 126.4728125 52.65625 125.8128125 52.65625 125.1328125 C53.336875 124.4728125 54.0175 123.8128125 54.71875 123.1328125 C67.7292556 110.41716255 70.91244239 93.57088856 72.65625 76.1328125 C57.14625 76.1328125 41.63625 76.1328125 25.65625 76.1328125 C25.32625 78.1128125 24.99625 80.0928125 24.65625 82.1328125 C38.18625 82.1328125 51.71625 82.1328125 65.65625 82.1328125 C66.81566038 85.61104365 66.36445884 87.59176828 65.65625 91.1328125 C65.32625 91.1328125 64.99625 91.1328125 64.65625 91.1328125 C64.65625 89.1528125 64.65625 87.1728125 64.65625 85.1328125 C51.45625 85.1328125 38.25625 85.1328125 24.65625 85.1328125 C23.45352181 82.72735612 23.55553528 81.18284297 23.59375 78.5078125 C23.60277344 77.69054687 23.61179687 76.87328125 23.62109375 76.03125 C23.63269531 75.40476562 23.64429688 74.77828125 23.65625 74.1328125 C30.90111551 74.10754511 38.14596974 74.0899807 45.39086914 74.07788086 C47.85767033 74.07283894 50.32446852 74.06600559 52.79125977 74.05737305 C56.32829529 74.04530125 59.86529145 74.03958294 63.40234375 74.03515625 C64.51274521 74.02999496 65.62314667 74.02483368 66.76719666 74.01951599 C68.29867088 74.01940269 68.29867088 74.01940269 69.86108398 74.01928711 C70.76487289 74.0170665 71.6686618 74.01484589 72.59983826 74.01255798 C74.65625 74.1328125 74.65625 74.1328125 75.65625 75.1328125 C76.81628515 87.86005529 74.90310854 100.80673253 68.65625 112.1328125 C67.99625 112.1328125 67.33625 112.1328125 66.65625 112.1328125 C66.285 113.1846875 66.285 113.1846875 65.90625 114.2578125 C63.46483651 119.87306353 60.00728048 123.89628282 55.65625 128.1328125 C54.99625 129.1228125 54.33625 130.1128125 53.65625 131.1328125 C52.99625 131.1328125 52.33625 131.1328125 51.65625 131.1328125 C51.65625 131.7928125 51.65625 132.4528125 51.65625 133.1328125 C50.66625 133.1328125 49.67625 133.1328125 48.65625 133.1328125 C48.32625 134.1228125 47.99625 135.1128125 47.65625 136.1328125 C46.99625 136.7928125 46.33625 137.4528125 45.65625 138.1328125 C44.94914322 139.78272832 44.27681011 141.44843506 43.65625 143.1328125 C45.77352223 141.3299751 45.77352223 141.3299751 46.28125 139.0703125 C47.65625 137.1328125 47.65625 137.1328125 49.4921875 136.72265625 C50.91874703 136.5810303 52.34931208 136.47468821 53.78125 136.40625 C55.89941208 136.28809382 55.89941208 136.28809382 57.65625 134.1328125 C58.460625 133.6584375 59.265 133.1840625 60.09375 132.6953125 C62.64213854 131.27944897 62.64213854 131.27944897 64.34375 129.4453125 C64.776875 129.0121875 65.21 128.5790625 65.65625 128.1328125 C66.31625 128.1328125 66.97625 128.1328125 67.65625 128.1328125 C67.65625 127.4728125 67.65625 126.8128125 67.65625 126.1328125 C68.31625 126.1328125 68.97625 126.1328125 69.65625 126.1328125 C69.65625 125.1428125 69.65625 124.1528125 69.65625 123.1328125 C70.31625 123.1328125 70.97625 123.1328125 71.65625 123.1328125 C71.65625 121.8128125 71.65625 120.4928125 71.65625 119.1328125 C72.31625 119.1328125 72.97625 119.1328125 73.65625 119.1328125 C73.73875 118.1840625 73.82125 117.2353125 73.90625 116.2578125 C74.49063298 112.03822366 76.04957435 108.36163249 77.71875 104.46484375 C79.14087385 100.92731068 79.65625 98.3528167 79.65625 94.5078125 C79.65625 90.1328125 79.65625 90.1328125 81.65625 88.1328125 C81.32625 87.1428125 80.99625 86.1528125 80.65625 85.1328125 C80.98625 84.1428125 81.31625 83.1528125 81.65625 82.1328125 C81.9616318 77.4780155 81.9616318 77.4780155 80.65625 73.1328125 C80.39943065 70.80431705 80.19883498 68.46942597 80.03125 66.1328125 C79.93585938 64.8746875 79.84046875 63.6165625 79.7421875 62.3203125 C79.65625 59.1328125 79.65625 59.1328125 80.65625 57.1328125 C80.05046747 55.11353739 79.38705266 53.11027853 78.65625 51.1328125 C77.33625 51.4628125 76.01625 51.7928125 74.65625 52.1328125 C72.67625 45.2028125 72.67625 45.2028125 70.65625 38.1328125 C69.33625 37.8028125 68.01625 37.4728125 66.65625 37.1328125 C65.609375 34.84765625 65.609375 34.84765625 64.90625 32.0703125 C64.66390625 31.15121094 64.4215625 30.23210938 64.171875 29.28515625 C64.00171875 28.57488281 63.8315625 27.86460938 63.65625 27.1328125 C62.66625 27.4628125 61.67625 27.7928125 60.65625 28.1328125 C58.46527348 24.7987178 57.22170837 22.09102109 56.65625 18.1328125 C72.27909967 28.35414499 81.08707647 45.69510037 85.20263672 63.49609375 C86.03964702 68.36138505 85.88308684 73.2702451 85.90625 78.1953125 C85.9371875 79.79922852 85.9371875 79.79922852 85.96875 81.43554688 C86.06315985 100.96658386 77.74822652 120.36660293 64.09375 134.3203125 C53.24337705 144.88856537 41.06641942 151.68695656 26.65625 156.1328125 C25.82222656 156.39835938 24.98820312 156.66390625 24.12890625 156.9375 C4.80255067 161.89645943 -17.45467211 157.23181444 -34.3984375 147.3515625 C-54.96356253 134.16476477 -66.72473125 116.82083272 -72.34375 93.1328125 C-75.96434578 71.69507433 -70.75218834 49.95244951 -58.34375 32.1328125 C-52.58274997 24.83433993 -46.03103321 18.38895844 -38.34375 13.1328125 C-37.28027344 12.36904297 -37.28027344 12.36904297 -36.1953125 11.58984375 C-26.13516911 4.91169395 -12.14375468 0.01512567 0 0 Z " fill="#D90738" transform="translate(143.34375,4.8671875)"/>
<path d="M0 0 C15.62284967 10.22133249 24.43082647 27.56228787 28.54638672 45.36328125 C29.38339702 50.22857255 29.22683684 55.1374326 29.25 60.0625 C29.270625 61.13177734 29.29125 62.20105469 29.3125 63.30273438 C29.40690985 82.83377136 21.09197652 102.23379043 7.4375 116.1875 C-3.41287295 126.75575287 -15.58983058 133.55414406 -30 138 C-30.83402344 138.26554688 -31.66804688 138.53109375 -32.52734375 138.8046875 C-49.58269238 143.1809281 -68.077656 139.63431 -84 133 C-80.31282562 130.54188375 -78.35654296 130.68881836 -74 131 C-73.01 131.66 -72.02 132.32 -71 133 C-68.67612053 133.39387788 -66.34206251 133.73486085 -64 134 C-64 134.66 -64 135.32 -64 136 C-61.4372008 135.68981396 -58.8747789 135.37693109 -56.3125 135.0625 C-55.59126953 134.97548828 -54.87003906 134.88847656 -54.12695312 134.79882812 C-51.09806873 134.42540402 -48.15005227 134.03332195 -45.16796875 133.37109375 C-43 133 -43 133 -40 134 C-39.195625 133.835 -38.39125 133.67 -37.5625 133.5 C-35 133 -35 133 -33.0625 133.65234375 C-30.93062747 134.25433555 -30.93062747 134.25433555 -29.18359375 132.78515625 C-28.31927734 131.93244141 -28.31927734 131.93244141 -27.4375 131.0625 C-24.30523918 128 -24.30523918 128 -21 128 C-18.30480288 126.69972025 -18.30480288 126.69972025 -16 125 C-16 124.34 -16 123.68 -16 123 C-20.455 123.495 -20.455 123.495 -25 124 C-25 124.66 -25 125.32 -25 126 C-25.99 126 -26.98 126 -28 126 C-28.33 126.66 -28.66 127.32 -29 128 C-32.58489487 128.84070543 -36.33343532 128.83177388 -40 129 C-40.76554199 129.03931641 -41.53108398 129.07863281 -42.31982422 129.11914062 C-69.63269909 130.36809208 -69.63269909 130.36809208 -78.9296875 122.33203125 C-79.28289062 121.89246094 -79.63609375 121.45289063 -80 121 C-79.18208984 121.29003906 -79.18208984 121.29003906 -78.34765625 121.5859375 C-77.59355469 121.84632813 -76.83945313 122.10671875 -76.0625 122.375 C-74.96615234 122.75785156 -74.96615234 122.75785156 -73.84765625 123.1484375 C-55.80850274 128.54286201 -35.65843319 127.83794631 -18.8125 119 C-15.29917374 116.92154573 -12.13099437 114.62599528 -9 112 C-8.34 112 -7.68 112 -7 112 C-6.505 110.515 -6.505 110.515 -6 109 C-5.34 109 -4.68 109 -4 109 C-4 108.34 -4 107.68 -4 107 C-3.319375 106.34 -2.63875 105.68 -1.9375 105 C11.0730056 92.28435005 14.25619239 75.43807606 16 58 C0.49 58 -15.02 58 -31 58 C-31.33 59.98 -31.66 61.96 -32 64 C-18.47 64 -4.94 64 9 64 C10.15941038 67.47823115 9.70820884 69.45895578 9 73 C8.67 73 8.34 73 8 73 C8 71.02 8 69.04 8 67 C-5.2 67 -18.4 67 -32 67 C-33.20272819 64.59454362 -33.10071472 63.05003047 -33.0625 60.375 C-33.05347656 59.55773437 -33.04445312 58.74046875 -33.03515625 57.8984375 C-33.02355469 57.27195313 -33.01195312 56.64546875 -33 56 C-25.75513449 55.97473261 -18.51028026 55.9571682 -11.26538086 55.94506836 C-8.79857967 55.94002644 -6.33178148 55.93319309 -3.86499023 55.92456055 C-0.32795471 55.91248875 3.20904145 55.90677044 6.74609375 55.90234375 C7.85649521 55.89718246 8.96689667 55.89202118 10.11094666 55.88670349 C11.64242088 55.88659019 11.64242088 55.88659019 13.20483398 55.88647461 C14.10862289 55.884254 15.0124118 55.88203339 15.94358826 55.87974548 C18 56 18 56 19 57 C20.16003515 69.72724279 18.24685854 82.67392003 12 94 C11.34 94 10.68 94 10 94 C9.62875 95.051875 9.62875 95.051875 9.25 96.125 C6.80858651 101.74025103 3.35103048 105.76347032 -1 110 C-1.66 110.99 -2.32 111.98 -3 113 C-3.66 113 -4.32 113 -5 113 C-5 113.66 -5 114.32 -5 115 C-5.99 115 -6.98 115 -8 115 C-8.495 116.485 -8.495 116.485 -9 118 C-9.66 118.66 -10.32 119.32 -11 120 C-11.70710678 121.64991582 -12.37943989 123.31562256 -13 125 C-10.88272777 123.1971626 -10.88272777 123.1971626 -10.375 120.9375 C-9 119 -9 119 -7.1640625 118.58984375 C-5.73750297 118.4482178 -4.30693792 118.34187571 -2.875 118.2734375 C-0.75683792 118.15528132 -0.75683792 118.15528132 1 116 C1.804375 115.525625 2.60875 115.05125 3.4375 114.5625 C5.98588854 113.14663647 5.98588854 113.14663647 7.6875 111.3125 C8.120625 110.879375 8.55375 110.44625 9 110 C9.66 110 10.32 110 11 110 C11 109.34 11 108.68 11 108 C11.66 108 12.32 108 13 108 C13 107.01 13 106.02 13 105 C13.66 105 14.32 105 15 105 C15 103.68 15 102.36 15 101 C15.66 101 16.32 101 17 101 C17.0825 100.05125 17.165 99.1025 17.25 98.125 C17.83438298 93.90541116 19.39332435 90.22881999 21.0625 86.33203125 C22.48462385 82.79449818 23 80.2200042 23 76.375 C23 72 23 72 25 70 C24.67 69.01 24.34 68.02 24 67 C24.495 65.515 24.495 65.515 25 64 C25.3053818 59.345203 25.3053818 59.345203 24 55 C23.74318065 52.67150455 23.54258498 50.33661347 23.375 48 C23.27960938 46.741875 23.18421875 45.48375 23.0859375 44.1875 C23 41 23 41 24 39 C23.39421747 36.98072489 22.73080266 34.97746603 22 33 C20.68 33.33 19.36 33.66 18 34 C16.68 29.38 15.36 24.76 14 20 C12.68 19.67 11.36 19.34 10 19 C8.953125 16.71484375 8.953125 16.71484375 8.25 13.9375 C8.00765625 13.01839844 7.7653125 12.09929688 7.515625 11.15234375 C7.34546875 10.44207031 7.1753125 9.73179688 7 9 C6.01 9.33 5.02 9.66 4 10 C1.80902348 6.6659053 0.56545837 3.95820859 0 0 Z " fill="#B90728" transform="translate(200,23)"/>
<path d="M0 0 C0.90516357 -0.00128906 1.81032715 -0.00257812 2.74291992 -0.00390625 C10.59171601 0.11858981 17.37665303 1.59915173 24.75 4.375 C24.75 5.365 24.75 6.355 24.75 7.375 C23.08388095 7.417721 21.41617115 7.41563832 19.75 7.375 C19.255 6.88 19.255 6.88 18.75 6.375 C17.08382885 6.33436168 15.41611905 6.332279 13.75 6.375 C13.811875 7.550625 13.87375 8.72625 13.9375 9.9375 C13.96144173 14.41460301 12.7379056 17.3991888 10.75 21.375 C10.09 21.375 9.43 21.375 8.75 21.375 C8.42 22.035 8.09 22.695 7.75 23.375 C7.75 22.715 7.75 22.055 7.75 21.375 C7.09 21.375 6.43 21.375 5.75 21.375 C5.75 20.385 5.75 19.395 5.75 18.375 C6.74 18.375 7.73 18.375 8.75 18.375 C8.255 13.92 8.255 13.92 7.75 9.375 C-10.702651 8.52333918 -27.47453534 14.64163375 -41.66015625 26.3671875 C-50.85338574 34.97697018 -56.41076738 45.51519231 -60.25 57.375 C-60.58257812 58.14457031 -60.91515625 58.91414063 -61.2578125 59.70703125 C-62.75261528 63.72652061 -63.37501484 67.90118442 -64.10546875 72.11132812 C-65.04095124 77.16595124 -65.04095124 77.16595124 -67.25 79.375 C-68.57 79.375 -69.89 79.375 -71.25 79.375 C-72.32976244 56.38104346 -66.99344571 40.01524088 -51.63671875 22.5390625 C-37.79464778 7.93716425 -20.02064329 -0.02994021 0 0 Z " fill="#FA6189" transform="translate(146.25,8.625)"/>
<path d="M0 0 C0.99902344 -0.00128906 1.99804688 -0.00257813 3.02734375 -0.00390625 C4.05988281 -0.00003906 5.09242188 0.00382813 6.15625 0.0078125 C7.18878906 0.00394531 8.22132813 0.00007812 9.28515625 -0.00390625 C10.28417969 -0.00261719 11.28320312 -0.00132812 12.3125 0 C13.21806641 0.00112793 14.12363281 0.00225586 15.05664062 0.00341797 C17.67987019 0.13398819 20.09816438 0.55211092 22.65625 1.1328125 C22.65625 1.4628125 22.65625 1.7928125 22.65625 2.1328125 C21.81030273 2.20798096 20.96435547 2.28314941 20.09277344 2.3605957 C16.89378632 2.64944773 13.69573405 2.94687634 10.49804688 3.24975586 C9.12530759 3.37808968 7.75226214 3.50319799 6.37890625 3.62475586 C-5.43488125 4.67400672 -16.77156598 6.23436124 -27.40625 11.7578125 C-28.08107422 12.10336182 -28.75589844 12.44891113 -29.45117188 12.80493164 C-47.52498218 22.39858238 -60.27744708 38.72973124 -66.34375 58.1328125 C-67.97556414 64.19774431 -68.62387867 69.83722285 -68.5390625 76.10546875 C-68.5362326 76.91398788 -68.53340271 77.72250702 -68.53048706 78.55552673 C-68.51941777 81.10228168 -68.49433958 83.6486664 -68.46875 86.1953125 C-68.45870302 87.93684383 -68.4495802 89.67838075 -68.44140625 91.41992188 C-68.41952213 95.65769167 -68.38508646 99.89518963 -68.34375 104.1328125 C-75.45304164 93.46887503 -74.29991958 76.51361442 -72.15625 64.5703125 C-67.42656266 43.31971728 -56.39264342 25.47366365 -38.34375 13.1328125 C-37.28027344 12.36904297 -37.28027344 12.36904297 -36.1953125 11.58984375 C-26.13516911 4.91169395 -12.14375468 0.01512567 0 0 Z " fill="#BB0E2E" transform="translate(143.34375,4.8671875)"/>
<path d="M0 0 C0.99 0.66 1.98 1.32 3 2 C3 4 3 6 3 8 C4.43750191 9.68798827 4.43750191 9.68798827 6 11 C6 11.99 6 12.98 6 14 C5.34 14 4.68 14 4 14 C4.05220703 14.92619141 4.05220703 14.92619141 4.10546875 15.87109375 C4.39110982 24.8075786 1.95072676 31.09854647 -2 39 C-2.69907414 41.73572585 -2.69907414 41.73572585 -3 44 C-3.66 44 -4.32 44 -5 44 C-5 45.32 -5 46.64 -5 48 C-5.66 48 -6.32 48 -7 48 C-7 48.99 -7 49.98 -7 51 C-7.66 51 -8.32 51 -9 51 C-9 51.66 -9 52.32 -9 53 C-10.62053812 54.38903267 -12.29705213 55.71332828 -14 57 C-14.804375 57.70125 -15.60875 58.4025 -16.4375 59.125 C-20.01182468 61.74035952 -23.48627862 62.73089398 -27.8125 63.5 C-28.8953125 63.7475 -28.8953125 63.7475 -30 64 C-30.495 64.99 -30.495 64.99 -31 66 C-30.01 66.33 -29.02 66.66 -28 67 C-30.97 67.99 -30.97 67.99 -34 69 C-33.7452486 67.68428397 -33.47065859 66.37239624 -33.1875 65.0625 C-33.03667969 64.33160156 -32.88585937 63.60070312 -32.73046875 62.84765625 C-32.48941406 62.23792969 -32.24835938 61.62820312 -32 61 C-30.515 60.505 -30.515 60.505 -29 60 C-28.67 59.34 -28.34 58.68 -28 58 C-27.01 58 -26.02 58 -25 58 C-25 57.34 -25 56.68 -25 56 C-23.68945377 54.64426252 -22.35251497 53.31387169 -21 52 C-20.46375 51.2575 -19.9275 50.515 -19.375 49.75 C-18.92125 49.1725 -18.4675 48.595 -18 48 C-17.34 48 -16.68 48 -16 48 C-14.92474806 45.34771188 -13.90543849 42.71631546 -13 40 C-11.5625 38.3125 -11.5625 38.3125 -10 37 C-9.34 37 -8.68 37 -8 37 C-7.27690895 34.63585124 -6.56393135 32.26935775 -5.86328125 29.8984375 C-5.31707745 28.06457678 -4.75404381 26.23557279 -4.16796875 24.4140625 C-2.08090377 17.5668444 -1.51133811 11.10166852 -1.2109375 3.9921875 C-1 1 -1 1 0 0 Z " fill="#D10734" transform="translate(220,80)"/>
<path d="M0 0 C7.24486551 -0.02526739 14.48971974 -0.0428318 21.73461914 -0.05493164 C24.20142033 -0.05997356 26.66821852 -0.06680691 29.13500977 -0.07543945 C32.67204529 -0.08751125 36.20904145 -0.09322956 39.74609375 -0.09765625 C40.85649521 -0.10281754 41.96689667 -0.10797882 43.11094666 -0.11329651 C44.64242088 -0.11340981 44.64242088 -0.11340981 46.20483398 -0.11352539 C47.10862289 -0.115746 48.0124118 -0.11796661 48.94358826 -0.12025452 C51 0 51 0 52 1 C53.16003515 13.72724279 51.24685854 26.67392003 45 38 C44.34 38 43.68 38 43 38 C42.7525 38.70125 42.505 39.4025 42.25 40.125 C39.80858651 45.74025103 36.35103048 49.76347032 32 54 C31.34 54.99 30.68 55.98 30 57 C29.34 57 28.68 57 28 57 C28 57.66 28 58.32 28 59 C27.01 59 26.02 59 25 59 C24.67 59.99 24.34 60.98 24 62 C22.29296875 62.984375 22.29296875 62.984375 20.1875 63.75 C19.50042969 64.01296875 18.81335938 64.2759375 18.10546875 64.546875 C15.71856031 65.06056958 14.29362227 64.76282269 12 64 C13.76825142 62.85018626 15.53969521 61.70528078 17.3125 60.5625 C18.29863281 59.92441406 19.28476563 59.28632813 20.30078125 58.62890625 C23 57 23 57 26 56 C26.33 55.01 26.66 54.02 27 53 C27.66 53 28.32 53 29 53 C29 52.34 29 51.68 29 51 C29.680625 50.34 30.36125 49.68 31.0625 49 C44.0730056 36.28435005 47.25619239 19.43807606 49 2 C33.49 2 17.98 2 2 2 C1.67 3.98 1.34 5.96 1 8 C14.53 8 28.06 8 42 8 C43.15941038 11.47823115 42.70820884 13.45895578 42 17 C41.67 17 41.34 17 41 17 C41 15.02 41 13.04 41 11 C27.8 11 14.6 11 1 11 C-0.20272819 8.59454362 -0.10071472 7.05003047 -0.0625 4.375 C-0.05347656 3.55773437 -0.04445312 2.74046875 -0.03515625 1.8984375 C-0.02355469 1.27195312 -0.01195312 0.64546875 0 0 Z " fill="#BE092D" transform="translate(167,79)"/>
<path d="M0 0 C0.33 0 0.66 0 1 0 C0.96519531 1.1859375 0.93039063 2.371875 0.89453125 3.59375 C0.58854833 18.53876357 2.12787659 31.66973715 8.109375 45.5234375 C8.40328125 46.34070313 8.6971875 47.15796875 9 48 C8.67 48.66 8.34 49.32 8 50 C8.474375 50.433125 8.94875 50.86625 9.4375 51.3125 C11 53 11 53 12 56 C10.68 57.32 9.36 58.64 8 60 C2.42857143 54.85714286 2.42857143 54.85714286 2 51 C1.67 52.32 1.34 53.64 1 55 C-1.03435531 51.27034861 -2 49.33094958 -2 45 C-3.32 44.34 -4.64 43.68 -6 43 C-6 41.35 -6 39.7 -6 38 C-6.66 38 -7.32 38 -8 38 C-9.03155536 29.94526218 -9.11895318 21.9868879 -9.0625 13.875 C-9.05798828 12.63234375 -9.05347656 11.3896875 -9.04882812 10.109375 C-9.03714924 7.07286498 -9.0207714 4.03645912 -9 1 C-8.67 1 -8.34 1 -8 1 C-8 6.28 -8 11.56 -8 17 C-6.68 17 -5.36 17 -4 17 C-4.04125 16.05125 -4.0825 15.1025 -4.125 14.125 C-4 11 -4 11 -2 9 C-1.32348793 6.80295489 -1.32348793 6.80295489 -0.875 4.375 C-0.70742187 3.55773437 -0.53984375 2.74046875 -0.3671875 1.8984375 C-0.24601562 1.27195312 -0.12484375 0.64546875 0 0 Z " fill="#D80837" transform="translate(83,71)"/>
<path d="M0 0 C0.99 0.33 1.98 0.66 3 1 C2.54109375 1.71542969 2.0821875 2.43085937 1.609375 3.16796875 C-2.94535542 10.5646213 -5.77963472 17.62572892 -8 26 C-8.37125 27.2375 -8.7425 28.475 -9.125 29.75 C-10.04627079 33.17186295 -10.7669131 36.60336172 -11.4375 40.08203125 C-12 42 -12 42 -14 44 C-15.32 44 -16.64 44 -18 44 C-18.74509763 28.13285932 -18.00008211 14.66679135 -9 1 C-7.68 1.99 -6.36 2.98 -5 4 C-5.33 5.98 -5.66 7.96 -6 10 C-5.690625 9.21625 -5.38125 8.4325 -5.0625 7.625 C-4 5 -4 5 -3 3 C-2.01 3 -1.02 3 0 3 C0 2.01 0 1.02 0 0 Z " fill="#F93764" transform="translate(93,44)"/>
<path d="M0 0 C-1.22112032 3.66336097 -2.86720482 4.35042014 -6.11328125 6.23046875 C-8 7 -8 7 -12 7 C-12.33 7.99 -12.66 8.98 -13 10 C-15.0625 11.1875 -15.0625 11.1875 -17 12 C-17 11.34 -17 10.68 -17 10 C-21.64586892 10.48484276 -21.64586892 10.48484276 -26 12 C-28.00109278 11.67329097 -30.00116131 11.34022786 -32 11 C-32.33 11.33 -32.66 11.66 -33 12 C-35.69235776 12.23678716 -38.36498156 12.42198025 -41.0625 12.5625 C-42.20041992 12.62727539 -42.20041992 12.62727539 -43.36132812 12.69335938 C-45.24065438 12.79973633 -47.12030244 12.90039934 -49 13 C-49 12.34 -49 11.68 -49 11 C-50.6396875 11.061875 -50.6396875 11.061875 -52.3125 11.125 C-56 11 -56 11 -59 9 C-59 8.01 -59 7.02 -59 6 C-58.01 5.67 -57.02 5.34 -56 5 C-55.34 4.34 -54.68 3.68 -54 3 C-52.11235748 3.46820314 -50.22646508 3.94555123 -48.35400391 4.47119141 C-44.16185568 5.41292477 -39.96432661 5.24978576 -35.6875 5.1875 C-34.76267822 5.18032959 -33.83785645 5.17315918 -32.88500977 5.16577148 C-21.33014144 5.04490004 -21.33014144 5.04490004 -10 3 C-10 2.34 -10 1.68 -10 1 C-3.71428571 -1.42857143 -3.71428571 -1.42857143 0 0 Z " fill="#D70737" transform="translate(185,146)"/>
<path d="M0 0 C13.2 0 26.4 0 40 0 C40 13.77616787 35.87839409 22.5536776 27 33 C26.01 33.495 26.01 33.495 25 34 C24.67 32.68 24.34 31.36 24 30 C24.66 30 25.32 30 26 30 C26.33 29.34 26.66 28.68 27 28 C27.66 28 28.32 28 29 28 C28.67 26.68 28.34 25.36 28 24 C28.99 23.34 29.98 22.68 31 22 C31.55011337 18.75435754 31.55011337 18.75435754 31.625 15.0625 C31.921522 8.23543401 31.921522 8.23543401 33 5 C31.948125 5.185625 30.89625 5.37125 29.8125 5.5625 C26 6 26 6 23.8671875 5.52734375 C19.68136667 4.75747207 15.55732301 4.93602377 11.3125 5 C9.60032296 5.02545988 7.88807291 5.04650973 6.17578125 5.0625 C5.04523315 5.07990234 5.04523315 5.07990234 3.8918457 5.09765625 C2 5 2 5 0 4 C0 2.68 0 1.36 0 0 Z " fill="#D80738" transform="translate(168,90)"/>
<path d="M0 0 C3.4375 0.8125 3.4375 0.8125 7 2 C7.495 3.485 7.495 3.485 8 5 C-2.81762967 16.29841321 -16.900158 22.80682087 -32.42773438 23.27685547 C-45.86168544 23.47764958 -56.18011529 20.4757879 -68 14 C-63.69110673 12.60377064 -61.99363961 14.00318019 -58 16 C-57.030625 15.979375 -56.06125 15.95875 -55.0625 15.9375 C-51.54758534 16.00923295 -49.91770073 17.19489482 -47.01171875 19.04296875 C-43.24613905 20.83436104 -39.11428653 20.83443515 -35 21 C-34.34 19.35 -33.68 17.7 -33 16 C-31.15535156 16.03480469 -31.15535156 16.03480469 -29.2734375 16.0703125 C-27.6406311 16.08908039 -26.0078181 16.10727949 -24.375 16.125 C-23.56675781 16.14175781 -22.75851563 16.15851563 -21.92578125 16.17578125 C-17.19906185 16.21420986 -13.44612298 15.82737094 -9 14 C-9 12.68 -9 11.36 -9 10 C-8.67 9.34 -8.34 8.68 -8 8 C-5.35139573 7.40644386 -2.70802678 7.25790731 0 7 C-0.99 6.67 -1.98 6.34 -3 6 C-2 4 -1 2 0 0 Z " fill="#DD0738" transform="translate(185,120)"/>
<path d="M0 0 C0.33 0 0.66 0 1 0 C1.01981934 0.57443848 1.03963867 1.14887695 1.06005859 1.74072266 C1.15592024 4.36923833 1.26534874 6.99702491 1.375 9.625 C1.4059375 10.52863281 1.436875 11.43226562 1.46875 12.36328125 C1.68492347 17.2992422 2.27745126 21.32553163 4 26 C3.71015177 29.01442158 3.35221369 31.29557263 2 34 C2.99 34.33 3.98 34.66 5 35 C4.67644531 35.65613281 4.35289062 36.31226563 4.01953125 36.98828125 C2.74640628 40.74912167 2.66974857 44.26443475 2.6875 48.1875 C2.67138672 48.91130859 2.65527344 49.63511719 2.63867188 50.38085938 C2.60024125 52.72208785 2.60024125 52.72208785 3 56 C3.99 56.66 4.98 57.32 6 58 C6 58.66 6 59.32 6 60 C7.8253125 59.8453125 7.8253125 59.8453125 9.6875 59.6875 C13.36567343 59.66793525 13.87734417 59.90083146 16.9375 62.375 C19 65 19 65 20 67 C18.75 69.5625 18.75 69.5625 17 72 C13.91538494 73.02820502 12.10314761 73.04582849 8.89453125 72.87890625 C7.91162109 72.83056641 6.92871094 72.78222656 5.91601562 72.73242188 C4.89185547 72.67634766 3.86769531 72.62027344 2.8125 72.5625 C1.77673828 72.51029297 0.74097656 72.45808594 -0.32617188 72.40429688 C-2.88442049 72.27461607 -5.44227938 72.13965022 -8 72 C-7.67 71.01 -7.34 70.02 -7 69 C-0.07 69 6.86 69 14 69 C14.33 67.02 14.66 65.04 15 63 C13.92878906 63.01160156 12.85757813 63.02320313 11.75390625 63.03515625 C10.35677257 63.04453299 8.95963701 63.05363331 7.5625 63.0625 C6.85544922 63.07087891 6.14839844 63.07925781 5.41992188 63.08789062 C3.61306441 63.09653588 1.80612397 63.05220011 0 63 C-1.8434624 61.1565376 -1.13047858 58.17107365 -1.1328125 55.703125 C-1.13413177 55.0498674 -1.13545105 54.3966098 -1.1368103 53.72355652 C-1.13874409 51.56565787 -1.1323463 49.40788574 -1.125 47.25 C-1.12411377 46.51790314 -1.12322754 45.78580627 -1.12231445 45.03152466 C-1.10100945 30.00637318 -0.64438613 15.01111194 0 0 Z " fill="#AE082D" transform="translate(154,49)"/>
<path d="M0 0 C0.66 0 1.32 0 2 0 C2.28875 0.969375 2.5775 1.93875 2.875 2.9375 C3.64214682 6.10664203 3.64214682 6.10664203 6 7 C6.8515625 8.84765625 6.8515625 8.84765625 7.625 11.0625 C7.88539062 11.79597656 8.14578125 12.52945313 8.4140625 13.28515625 C8.60742188 13.85105469 8.80078125 14.41695312 9 15 C9.33 13.68 9.66 12.36 10 11 C10.66 11.66 11.32 12.32 12 13 C11.625 15.125 11.625 15.125 11 17 C11.99 17.33 12.98 17.66 14 18 C14.66 18.99 15.32 19.98 16 21 C16.99 19.68 17.98 18.36 19 17 C16.72584713 13.62911733 16.72584713 13.62911733 13 12 C13.99 11.34 14.98 10.68 16 10 C16.33 9.34 16.66 8.68 17 8 C18.45932573 9.93675945 19.91749264 11.87437288 21.375 13.8125 C21.7875 14.35970703 22.2 14.90691406 22.625 15.47070312 C24.48407032 17.94446605 26.28289972 20.42434959 28 23 C26.02 22.34 24.04 21.68 22 21 C21.67 21.99 21.34 22.98 21 24 C21.99 24 22.98 24 24 24 C23.01 26.475 23.01 26.475 22 29 C22.433125 29.48210937 22.86625 29.96421875 23.3125 30.4609375 C23.869375 31.09257812 24.42625 31.72421875 25 32.375 C25.556875 33.00148437 26.11375 33.62796875 26.6875 34.2734375 C28 36 28 36 28 38 C15.0683769 32.08508719 6.22125687 17.80889079 0.7421875 5.20703125 C0 3 0 3 0 0 Z " fill="#D60731" transform="translate(75,109)"/>
<path d="M0 0 C0.33 0 0.66 0 1 0 C1.78171316 12.30474415 -0.70942668 23.74605843 -6.6953125 34.51171875 C-7.86366952 36.73999248 -8.46746033 38.56702466 -9 41 C-11.0770271 45.05020285 -13.75606697 47.83924474 -17 51 C-17.66 51.99 -18.32 52.98 -19 54 C-19.66 54 -20.32 54 -21 54 C-21 54.66 -21 55.32 -21 56 C-21.99 56 -22.98 56 -24 56 C-24.33 56.99 -24.66 57.98 -25 59 C-26.70703125 59.984375 -26.70703125 59.984375 -28.8125 60.75 C-29.84310547 61.14445312 -29.84310547 61.14445312 -30.89453125 61.546875 C-33.28143969 62.06056958 -34.70637773 61.76282269 -37 61 C-35.23174858 59.85018626 -33.46030479 58.70528078 -31.6875 57.5625 C-30.70136719 56.92441406 -29.71523437 56.28632813 -28.69921875 55.62890625 C-26 54 -26 54 -23 53 C-22.67 52.01 -22.34 51.02 -22 50 C-21.34 50 -20.68 50 -20 50 C-20 49.34 -20 48.68 -20 48 C-19.319375 47.34 -18.63875 46.68 -17.9375 46 C-5.0061777 33.36173883 -2.24811289 17.14414548 0 0 Z " fill="#70081F" transform="translate(216,82)"/>
<path d="M0 0 C11.62937579 0.67092553 22.52443222 6.48747622 32 13 C32.66 13.99 33.32 14.98 34 16 C33.319375 15.690625 32.63875 15.38125 31.9375 15.0625 C28.41494009 13.78838259 24.77212424 13 21 13 C21 13.66 21 14.32 21 15 C21.66 15.33 22.32 15.66 23 16 C21.68 16 20.36 16 19 16 C18.67 15.34 18.34 14.68 18 14 C17.175 13.690625 16.35 13.38125 15.5 13.0625 C14.675 12.711875 13.85 12.36125 13 12 C12.67 11.01 12.34 10.02 12 9 C11.360625 8.87625 10.72125 8.7525 10.0625 8.625 C9.381875 8.41875 8.70125 8.2125 8 8 C7.71125 7.195625 7.4225 6.39125 7.125 5.5625 C6.20295295 2.66336372 6.20295295 2.66336372 2.875 1.6875 C1.451875 1.3471875 1.451875 1.3471875 0 1 C0 0.67 0 0.34 0 0 Z " fill="#DB0737" transform="translate(166,7)"/>
<path d="M0 0 C4.82502759 1.11346791 7.92817679 2.01800695 11 6 C12.1875 8.625 12.1875 8.625 13 11 C13.33 11.66 13.66 12.32 14 13 C13.071875 13.3403125 13.071875 13.3403125 12.125 13.6875 C9.38589791 15.37929835 8.94975528 16.99244161 8 20 C4 15.25 4 15.25 4 13 C3.34 13 2.68 13 2 13 C1.67 11.68 1.34 10.36 1 9 C0.34 9 -0.32 9 -1 9 C-1 8.01 -1 7.02 -1 6 C-0.34 6 0.32 6 1 6 C1 4.68 1 3.36 1 2 C0.34 1.67 -0.32 1.34 -1 1 C-0.67 0.67 -0.34 0.34 0 0 Z " fill="#DC0738" transform="translate(190,19)"/>
<path d="M0 0 C1.33333333 0.66666667 2.66666667 1.33333333 4 2 C4.721875 2.268125 5.44375 2.53625 6.1875 2.8125 C8 4 8 4 8.75 6.625 C8.87375 7.800625 8.87375 7.800625 9 9 C10.98 9.66 12.96 10.32 15 11 C15 14 15 14 14 17 C12.54054712 16.91291331 11.08234132 16.80473093 9.625 16.6875 C8.81289062 16.62949219 8.00078125 16.57148438 7.1640625 16.51171875 C5 16 5 16 3 13 C2.01 12.34 1.02 11.68 0 11 C-0.33 10.01 -0.66 9.02 -1 8 C-0.34 8 0.32 8 1 8 C0.67 6.68 0.34 5.36 0 4 C-1.32 4.33 -2.64 4.66 -4 5 C-2.68 3.35 -1.36 1.7 0 0 Z " fill="#DB0838" transform="translate(97,129)"/>
<path d="M0 0 C13.53 0 27.06 0 41 0 C42.15941038 3.47823115 41.70820884 5.45895578 41 9 C40.67 9 40.34 9 40 9 C40 7.02 40 5.04 40 3 C26.8 3 13.6 3 0 3 C0 2.01 0 1.02 0 0 Z " fill="#8C0620" transform="translate(168,87)"/>
<path d="M0 0 C0.33 0 0.66 0 1 0 C0.86149295 3.45866792 0.71295273 6.91683275 0.5625 10.375 C0.50352539 11.85226563 0.50352539 11.85226563 0.44335938 13.359375 C0.40146484 14.30039063 0.35957031 15.24140625 0.31640625 16.2109375 C0.26141968 17.51490479 0.26141968 17.51490479 0.20532227 18.84521484 C-0.00963857 21.10115343 -0.38231114 22.38231114 -2 24 C-1.59070014 26.05396726 -1.59070014 26.05396726 -1 28 C-1.33 27.34 -1.66 26.68 -2 26 C-2.33 26.66 -2.66 27.32 -3 28 C-3.66 28 -4.32 28 -5 28 C-5.33 27.34 -5.66 26.68 -6 26 C-6.66 26.33 -7.32 26.66 -8 27 C-9.15664737 21.51730931 -9.11416255 16.19660726 -9.0625 10.625 C-9.05798828 9.69816406 -9.05347656 8.77132812 -9.04882812 7.81640625 C-9.03711574 5.54420291 -9.02071372 3.27213612 -9 1 C-8.67 1 -8.34 1 -8 1 C-8 6.28 -8 11.56 -8 17 C-6.68 17 -5.36 17 -4 17 C-4.04125 16.05125 -4.0825 15.1025 -4.125 14.125 C-4 11 -4 11 -2 9 C-1.32348793 6.80295489 -1.32348793 6.80295489 -0.875 4.375 C-0.70742187 3.55773437 -0.53984375 2.74046875 -0.3671875 1.8984375 C-0.24601562 1.27195312 -0.12484375 0.64546875 0 0 Z " fill="#DC1644" transform="translate(83,71)"/>
<path d="M0 0 C0.66 0.33 1.32 0.66 2 1 C1.34 3.31 0.68 5.62 0 8 C-0.66 8 -1.32 8 -2 8 C-2 9.32 -2 10.64 -2 12 C-2.66 12 -3.32 12 -4 12 C-4 12.99 -4 13.98 -4 15 C-4.66 15 -5.32 15 -6 15 C-6 15.66 -6 16.32 -6 17 C-7.62053812 18.38903267 -9.29705213 19.71332828 -11 21 C-12.3303125 22.11375 -12.3303125 22.11375 -13.6875 23.25 C-16 25 -16 25 -18 25 C-17.67 22.69 -17.34 20.38 -17 18 C-16.030625 17.7525 -15.06125 17.505 -14.0625 17.25 C-13.051875 16.8375 -12.04125 16.425 -11 16 C-10.03122943 13.96756452 -10.03122943 13.96756452 -10 12 C-9.01 12 -8.02 12 -7 12 C-6.87625 11.443125 -6.7525 10.88625 -6.625 10.3125 C-5.27884079 5.33171093 -4.28801244 2.85867496 0 0 Z " fill="#C6052F" transform="translate(217,116)"/>
<path d="M0 0 C0.54527344 0.19335938 1.09054688 0.38671875 1.65234375 0.5859375 C2.40644531 0.84632813 3.16054687 1.10671875 3.9375 1.375 C5.03384766 1.75785156 5.03384766 1.75785156 6.15234375 2.1484375 C13.49713427 4.34482204 20.39036963 5.38717685 28.0625 5.375 C29.42362915 5.37584595 29.42362915 5.37584595 30.81225586 5.37670898 C39.33581025 5.23979944 46.87599544 3.50666312 55 1 C56.33065312 0.65612335 57.66264875 0.31682885 59 0 C58.67 0.99 58.34 1.98 58 3 C57.01 3 56.02 3 55 3 C55 3.66 55 4.32 55 5 C54.01 5 53.02 5 52 5 C51.67 5.66 51.34 6.32 51 7 C47.41510513 7.84070543 43.66656468 7.83177388 40 8 C39.23445801 8.03931641 38.46891602 8.07863281 37.68017578 8.11914062 C10.36730091 9.36809208 10.36730091 9.36809208 1.0703125 1.33203125 C0.71710938 0.89246094 0.36390625 0.45289063 0 0 Z " fill="#8C0521" transform="translate(120,144)"/>
<path d="M0 0 C0.99 0.33 1.98 0.66 3 1 C2.04801289 2.64951226 1.08820855 4.29451508 0.125 5.9375 C-0.40867187 6.85402344 -0.94234375 7.77054688 -1.4921875 8.71484375 C-3 11 -3 11 -5 12 C-5.99 13.485 -5.99 13.485 -7 15 C-10.625 16.1875 -10.625 16.1875 -14 17 C-15.25348607 14.04893565 -15.01044806 13.02593537 -13.78515625 9.984375 C-13.21667969 8.91703125 -12.64820312 7.8496875 -12.0625 6.75 C-11.49660156 5.67234375 -10.93070312 4.5946875 -10.34765625 3.484375 C-9.90292969 2.66453125 -9.45820312 1.8446875 -9 1 C-7.68 1.99 -6.36 2.98 -5 4 C-5.33 5.98 -5.66 7.96 -6 10 C-5.690625 9.21625 -5.38125 8.4325 -5.0625 7.625 C-4 5 -4 5 -3 3 C-2.01 3 -1.02 3 0 3 C0 2.01 0 1.02 0 0 Z " fill="#F9436D" transform="translate(93,44)"/>
<path d="M0 0 C1.32 0.99 2.64 1.98 4 3 C4 2.34 4 1.68 4 1 C6 2 6 2 8 4 C8.33 3.34 8.66 2.68 9 2 C9 5.53986194 8.41847197 6.49515403 6 9 C4.68 9 3.36 9 2 9 C2 9.99 2 10.98 2 12 C1.01 12.66 0.02 13.32 -1 14 C-1.72965366 16.56282742 -1.72965366 16.56282742 -2 19 C-2.66 19 -3.32 19 -4 19 C-3.67 17.02 -3.34 15.04 -3 13 C-3.99 12.67 -4.98 12.34 -6 12 C-5.54300722 6.97307937 -3.00758252 3.85103739 0 0 Z " fill="#FB517C" transform="translate(91,35)"/>
<path d="M0 0 C0.66 0.33 1.32 0.66 2 1 C3.2835725 4.85071751 3.14288486 8.48789165 3.1328125 12.5 C3.13376923 13.33208984 3.13472595 14.16417969 3.13571167 15.02148438 C3.13639187 16.77994869 3.13454872 18.53841552 3.13037109 20.296875 C3.12502058 22.98964066 3.13032148 25.68223953 3.13671875 28.375 C3.13605794 30.0833337 3.13477672 31.7916673 3.1328125 33.5 C3.13483673 34.30630859 3.13686096 35.11261719 3.13894653 35.94335938 C3.12519532 39.2190477 3.04318612 41.87044163 2 45 C-0.5625 46.1875 -0.5625 46.1875 -3 47 C-2.67 45.989375 -2.34 44.97875 -2 43.9375 C-0.9256211 40.24103554 -0.92453157 36.84888985 -1 33 C0 31 0 31 1 30 C0.67 29.01 0.34 28.02 0 27 C0.33 26.01 0.66 25.02 1 24 C1.3053818 19.345203 1.3053818 19.345203 0 15 C-0.25630126 12.65057174 -0.45712836 10.29489742 -0.625 7.9375 C-0.72039062 6.66777344 -0.81578125 5.39804688 -0.9140625 4.08984375 C-0.94242188 3.07019531 -0.97078125 2.05054687 -1 1 C-0.67 0.67 -0.34 0.34 0 0 Z " fill="#B60522" transform="translate(224,63)"/>
<path d="M0 0 C9.06335876 -0.10234659 17.98175113 -0.06996173 27 1 C27 1.99 27 2.98 27 4 C21.71619943 5.08784129 16.61686215 5.14950622 11.25 5.125 C10.38761719 5.12886719 9.52523437 5.13273437 8.63671875 5.13671875 C7.40115234 5.13478516 7.40115234 5.13478516 6.140625 5.1328125 C5.39329102 5.13168457 4.64595703 5.13055664 3.87597656 5.12939453 C2 5 2 5 0 4 C0 2.68 0 1.36 0 0 Z " fill="#DF053B" transform="translate(168,90)"/>
<path d="M0 0 C1.32 1.32 2.64 2.64 4 4 C6.13309192 5.23512079 6.13309192 5.23512079 8 6 C7.6732039 8.33425788 7.33859959 10.66742506 7 13 C6.855625 14.093125 6.71125 15.18625 6.5625 16.3125 C6 19 6 19 4 21 C2.68 21 1.36 21 0 21 C0 14.07 0 7.14 0 0 Z " fill="#F12555" transform="translate(75,67)"/>
<path d="M0 0 C0.66 0 1.32 0 2 0 C1.45252767 4.95766611 -0.15240178 8.90758625 -2.5 13.25 C-2.85312256 13.90605225 -3.20624512 14.56210449 -3.57006836 15.23803711 C-8.46805448 24.00200657 -15.23971748 30.72572903 -23 37 C-22.18237596 32.72110086 -20.1817871 30.95451659 -17 28 C-16.443125 27.401875 -15.88625 26.80375 -15.3125 26.1875 C-14 25 -14 25 -12 25 C-12 24.34 -12 23.68 -12 23 C-11.34 23 -10.68 23 -10 23 C-10 22.01 -10 21.02 -10 20 C-9.34 20 -8.68 20 -8 20 C-8 18.68 -8 17.36 -8 16 C-7.34 16 -6.68 16 -6 16 C-5.9175 15.01 -5.835 14.02 -5.75 13 C-5.12516328 8.49750009 -3.27840168 3.27840168 0 0 Z " fill="#9E0919" transform="translate(223,108)"/>
<path d="M0 0 C0.66 0 1.32 0 2 0 C2 13.53 2 27.06 2 41 C-2.14476726 34.7828491 -2.33227311 27.93708328 -2.25 20.6875 C-2.24613281 19.85951904 -2.24226563 19.03153809 -2.23828125 18.1784668 C-2.1509523 11.97144065 -1.5189022 6.0349239 0 0 Z " fill="#D40632" transform="translate(73,68)"/>
<path d="M0 0 C2.65837761 0.45572188 4.95712169 0.98130945 7.4375 2.0625 C9.99608239 3.18454223 9.99608239 3.18454223 12.875 2.875 C16 3 16 3 18.875 4.9375 C26.31087758 9.64522563 38.45501342 8.03818988 47 8 C47 8.33 47 8.66 47 9 C30.51808846 13.06313525 14.51354932 8.95157223 0 1 C0 0.67 0 0.34 0 0 Z " fill="#C11239" transform="translate(117,133)"/>
<path d="M0 0 C1.65 0.33 3.3 0.66 5 1 C5.74264468 14.42261497 4.73754558 24.77356359 -1 37 C-1.66 37 -2.32 37 -3 37 C-3.33 37.99 -3.66 38.98 -4 40 C-4.66 39.67 -5.32 39.34 -6 39 C-5.60167969 38.30777344 -5.20335937 37.61554688 -4.79296875 36.90234375 C0.55319732 27.02949693 5.45978019 13.45485875 3 2 C2.01 1.34 1.02 0.68 0 0 Z " fill="#A3072A" transform="translate(213,80)"/>
<path d="M0 0 C2 1 2 1 2 1 Z M-1 1 C-0.34 2.32 0.32 3.64 1 5 C-2.18651312 7.56976865 -5.39944077 10.10453855 -8.625 12.625 C-9.38039063 13.21539062 -10.13578125 13.80578125 -10.9140625 14.4140625 C-12.56532945 15.66952015 -14.27405081 16.8493672 -16 18 C-16.33 17.01 -16.66 16.02 -17 15 C-16.34 14.67 -15.68 14.34 -15 14 C-15.061875 13.21625 -15.12375 12.4325 -15.1875 11.625 C-15.125625 10.75875 -15.06375 9.8925 -15 9 C-12 7 -12 7 -9 7 C-6.96302383 5.37873325 -4.96185416 3.71140469 -3 2 C-2.34 1.67 -1.68 1.34 -1 1 Z " fill="#E3597E" transform="translate(117,20)"/>
<path d="M0 0 C0.66 0.33 1.32 0.66 2 1 C2.59355614 3.64860427 2.74209269 6.29197322 3 9 C2.01 9.495 2.01 9.495 1 10 C0.67 10.66 0.34 11.32 0 12 C-5 12 -5 12 -8 11 C-7.43040847 7.37386801 -6.07625466 5.74482259 -3.4375 3.25 C-2.79683594 2.63640625 -2.15617187 2.0228125 -1.49609375 1.390625 C-1.00238281 0.93171875 -0.50867188 0.4728125 0 0 Z " fill="#FB5D85" transform="translate(100,26)"/>
<path d="M0 0 C5.28 0 10.56 0 16 0 C16.33 0.99 16.66 1.98 17 3 C13.51275514 5.09578262 10.40030426 5.44106017 6.375 5.75 C4.65410156 5.89695313 4.65410156 5.89695313 2.8984375 6.046875 C0 6 0 6 -2 4 C-1.34 2.68 -0.68 1.36 0 0 Z " fill="#DD0739" transform="translate(152,136)"/>
<path d="M0 0 C1.65 0.66 3.3 1.32 5 2 C3.52899917 7.6388365 3.52899917 7.6388365 1.24707031 9.19677734 C-1.42660666 10.15249195 -3.37227995 10.14114651 -6.203125 9.9765625 C-7.1828125 9.925 -8.1625 9.8734375 -9.171875 9.8203125 C-10.69554687 9.72363281 -10.69554687 9.72363281 -12.25 9.625 C-13.796875 9.53992188 -13.796875 9.53992188 -15.375 9.453125 C-17.91739205 9.311881 -20.45876238 9.16049254 -23 9 C-22.67 8.01 -22.34 7.02 -22 6 C-15.07 6 -8.14 6 -1 6 C-0.67 4.02 -0.34 2.04 0 0 Z " fill="#9A0827" transform="translate(169,112)"/>
<path d="M0 0 C0.66 0.33 1.32 0.66 2 1 C2 3.64 2 6.28 2 9 C0.92621094 9.12117188 -0.14757812 9.24234375 -1.25390625 9.3671875 C-2.69013975 9.53615615 -4.12633572 9.70544404 -5.5625 9.875 C-6.26697266 9.95363281 -6.97144531 10.03226563 -7.69726562 10.11328125 C-12.30347389 10.66517717 -16.53506584 11.69953374 -21 13 C-23.33215844 13.07403678 -25.66860788 13.09515886 -28 13 C-19.79760448 7.53173632 -9.59825076 6.80803498 0 7 C0 4.69 0 2.38 0 0 Z " fill="#A31037" transform="translate(153,17)"/>
<path d="M0 0 C-0.33 1.32 -0.66 2.64 -1 4 C-4.67554457 3.54055693 -8.04412803 2.98782675 -11.625 2 C-17.29983308 0.49717859 -23.16252526 0.3381464 -29 0 C-29 -0.33 -29 -0.66 -29 -1 C-19.29380893 -2.20253695 -9.35110008 -3.40040003 0 0 Z " fill="#D2062F" transform="translate(173,9)"/>
<path d="M0 0 C-13.70583772 4.28785984 -27.78200289 5.82979554 -42 3 C-42 2.67 -42 2.34 -42 2 C-41.20416504 1.98018066 -40.40833008 1.96036133 -39.58837891 1.93994141 C-35.93362362 1.84386142 -32.2793762 1.73452176 -28.625 1.625 C-27.37332031 1.5940625 -26.12164062 1.563125 -24.83203125 1.53125 C-18.38324509 1.32867033 -12.32755752 0.91843239 -6.06396484 -0.68212891 C-3.75109148 -1.03833439 -2.210529 -0.71103997 0 0 Z " fill="#930A17" transform="translate(176,159)"/>
<path d="M0 0 C-4.45181198 4.45181198 -9.12218934 5.37727999 -15.25 5.625 C-19.78869883 5.66449026 -19.78869883 5.66449026 -24 7 C-24 6.01 -24 5.02 -24 4 C-15.78527339 0.73741354 -8.83250989 -0.56377723 0 0 Z " fill="#FA4C78" transform="translate(151,27)"/>
<path d="M0 0 C0.33 0 0.66 0 1 0 C1.33 4.95 1.66 9.9 2 15 C2.33 15 2.66 15 3 15 C3.99 15 4.98 15 6 15 C5.814375 16.0725 5.62875 17.145 5.4375 18.25 C5.04453758 21.6182493 5.13248784 22.9155123 6 26 C6.03888349 28.33300933 6.0448635 30.66709801 6 33 C-1.611221 23.66186331 -0.33710781 11.34929631 0 0 Z " fill="#A7072B" transform="translate(90,76)"/>
<path d="M0 0 C2 2 2 2 2.08203125 4.27734375 C1.99308594 5.15519531 1.90414062 6.03304687 1.8125 6.9375 C1.73644531 7.81277344 1.66039062 8.68804687 1.58203125 9.58984375 C0.9176276 12.34109915 0.23018581 13.30207811 -2 15 C-4.67643957 15.89214652 -6.25384378 16.13540211 -9 16.125 C-10.0209375 16.12886719 -10.0209375 16.12886719 -11.0625 16.1328125 C-14.07953646 15.92599952 -15.68073165 15.34207323 -17.75 13.125 C-18.1625 12.42375 -18.575 11.7225 -19 11 C-18.67 10.01 -18.34 9.02 -18 8 C-17.505 8.825 -17.01 9.65 -16.5 10.5 C-14.11212157 13.37747209 -14.11212157 13.37747209 -10.0625 13.625 C-6.82990045 13.39582317 -5.8776659 12.9167087 -3.0625 11 C-0.40204018 7.13024026 -0.23627941 4.64682839 0 0 Z " fill="#94082A" transform="translate(134,54)"/>
<path d="M0 0 C0.66 0 1.32 0 2 0 C2.33 1.32 2.66 2.64 3 4 C3.66 4 4.32 4 5 4 C3.68618385 8.6188849 1.86177157 11.96699445 -1 15.8125 C-1.70125 16.76769531 -2.4025 17.72289063 -3.125 18.70703125 C-5 21 -5 21 -7 22 C-7.33 20.68 -7.66 19.36 -8 18 C-7.34 18 -6.68 18 -6 18 C-5.67 17.34 -5.34 16.68 -5 16 C-4.34 16 -3.68 16 -3 16 C-3.33 14.68 -3.66 13.36 -4 12 C-3.01 11.34 -2.02 10.68 -1 10 C-0.41810734 7.57478506 -0.41810734 7.57478506 -0.3125 4.875 C-0.24675781 3.96492188 -0.18101562 3.05484375 -0.11328125 2.1171875 C-0.07589844 1.41851562 -0.03851563 0.71984375 0 0 Z " fill="#C40D34" transform="translate(200,102)"/>
<path d="M0 0 C1.03125 0.391875 2.0625 0.78375 3.125 1.1875 C3.125 1.5175 3.125 1.8475 3.125 2.1875 C2.43792969 2.28546875 1.75085938 2.3834375 1.04296875 2.484375 C0.14191406 2.63390625 -0.75914063 2.7834375 -1.6875 2.9375 C-2.58082031 3.07671875 -3.47414063 3.2159375 -4.39453125 3.359375 C-7.39948678 4.36260425 -8.13744792 5.62030594 -9.875 8.1875 C-10.535 8.1875 -11.195 8.1875 -11.875 8.1875 C-12.205 8.8475 -12.535 9.5075 -12.875 10.1875 C-14.3533226 7.23085481 -13.93532783 4.44520263 -13.875 1.1875 C-13.070625 1.5278125 -13.070625 1.5278125 -12.25 1.875 C-9.6923548 2.45134431 -9.6923548 2.45134431 -7.0625 0.625 C-3.875 -0.8125 -3.875 -0.8125 0 0 Z " fill="#D02C59" transform="translate(125.875,46.8125)"/>
<path d="M0 0 C7.59 0.33 15.18 0.66 23 1 C23 1.33 23 1.66 23 2 C19.7 2 16.4 2 13 2 C13 2.66 13 3.32 13 4 C13.99 4.33 14.98 4.66 16 5 C15 6 15 6 13.15234375 6.09765625 C11.1015625 6.06510417 9.05078125 6.03255208 7 6 C7 5.01 7 4.02 7 3 C6.01 3.33 5.02 3.66 4 4 C4 3.34 4 2.68 4 2 C2.68 2 1.36 2 0 2 C0 1.34 0 0.68 0 0 Z " fill="#DB0839" transform="translate(145,120)"/>
<path d="M0 0 C0.66 0.33 1.32 0.66 2 1 C3.57932409 5.73797228 3.22582388 10.53785093 3.25 15.5 C3.270625 16.55832031 3.29125 17.61664063 3.3125 18.70703125 C3.32023438 20.22876953 3.32023438 20.22876953 3.328125 21.78125 C3.34214355 23.1744043 3.34214355 23.1744043 3.35644531 24.59570312 C2.94015081 27.40369507 2.18697593 28.26485474 0 30 C0.08378906 29.08476563 0.16757813 28.16953125 0.25390625 27.2265625 C0.35574219 26.03804687 0.45757812 24.84953125 0.5625 23.625 C0.71912109 21.84996094 0.71912109 21.84996094 0.87890625 20.0390625 C1.24153596 17.08101369 1.24153596 17.08101369 0 15 C-0.25630126 12.65057174 -0.45712836 10.29489742 -0.625 7.9375 C-0.72039062 6.66777344 -0.81578125 5.39804688 -0.9140625 4.08984375 C-0.94242188 3.07019531 -0.97078125 2.05054687 -1 1 C-0.67 0.67 -0.34 0.34 0 0 Z " fill="#C5052B" transform="translate(224,63)"/>
<path d="M0 0 C6.66730383 4.36211899 11.267303 9.63099818 16 16 C15.67 16.66 15.34 17.32 15 18 C14.7525 17.38125 14.505 16.7625 14.25 16.125 C12.76718549 13.60421533 11.59136042 13.2147002 9 12 C8.34 11.01 7.68 10.02 7 9 C6.01 9.33 5.02 9.66 4 10 C1.80902348 6.6659053 0.56545837 3.95820859 0 0 Z " fill="#B10A25" transform="translate(200,23)"/>
<path d="M0 0 C1 3 1 3 1.375 6.375 C1.99568255 9.97495879 2.93433946 12.03622618 5 15 C2 17 2 17 -2 17 C-1.814375 16.195625 -1.62875 15.39125 -1.4375 14.5625 C-1.293125 13.716875 -1.14875 12.87125 -1 12 C-1.33 11.67 -1.66 11.34 -2 11 C-1.9140625 9.00390625 -1.9140625 9.00390625 -1.625 6.5625 C-1.53476563 5.75941406 -1.44453125 4.95632812 -1.3515625 4.12890625 C-1 2 -1 2 0 0 Z " fill="#EE2050" transform="translate(114,55)"/>
<path d="M0 0 C-3.76526687 3.15796576 -7.74201074 5.84365982 -11.83984375 8.5390625 C-14.33977091 10.22979082 -16.68814558 12.06102533 -19 14 C-19.66 13.67 -20.32 13.34 -21 13 C-7.265625 -2.421875 -7.265625 -2.421875 0 0 Z " fill="#B61F45" transform="translate(126,31)"/>
<path d="M0 0 C-1.55961362 0.96302356 -3.12283225 1.92021004 -4.6875 2.875 C-5.55761719 3.40867188 -6.42773438 3.94234375 -7.32421875 4.4921875 C-9.86362294 5.92315103 -12.21959704 7.12391947 -15 8 C-15.99 7.67 -16.98 7.34 -18 7 C-14.08257029 3.45565883 -11.19615576 1.38564154 -6 0 C-3 -1 -3 -1 0 0 Z " fill="#AB081C" transform="translate(194,150)"/>
<path d="M0 0 C-0.54745627 3.76583554 -1.99131767 5.22721286 -4.875 7.625 C-5.57367188 8.21539062 -6.27234375 8.80578125 -6.9921875 9.4140625 C-9 11 -9 11 -12 13 C-12 10 -12 10 -10.6875 8.625 C-10.130625 8.08875 -9.57375 7.5525 -9 7 C-8.505 6.154375 -8.01 5.30875 -7.5 4.4375 C-5.42396229 1.06393872 -3.99471514 0 0 0 Z " fill="#CA0D34" transform="translate(103,22)"/>
<path d="M0 0 C6.45840708 5.44247788 6.45840708 5.44247788 9.125 8.1875 C10.98928794 10.14469139 10.98928794 10.14469139 13.6875 11.5 C16 13 16 13 16.8125 15.1875 C16.874375 15.785625 16.93625 16.38375 17 17 C10.2892537 14.02591925 4.08316369 8.03598111 0 2 C0 1.34 0 0.68 0 0 Z " fill="#A70A20" transform="translate(86,130)"/>
<path d="M0 0 C0.66 0 1.32 0 2 0 C2.28875 0.969375 2.5775 1.93875 2.875 2.9375 C3.64214682 6.10664203 3.64214682 6.10664203 6 7 C6.78125 8.99609375 6.78125 8.99609375 7.5 11.4375 C8.57316512 15.09382035 8.57316512 15.09382035 11 18 C10.67 18.99 10.34 19.98 10 21 C0 6.9 0 6.9 0 0 Z " fill="#AB0B28" transform="translate(75,109)"/>
<path d="M0 0 C2.8124344 2.71930744 5.29958259 5.52744118 7.6875 8.625 C8.28949219 9.40101562 8.89148438 10.17703125 9.51171875 10.9765625 C11 13 11 13 12 15 C7.57832687 13.82088716 5.41649718 12.91242401 3 9 C0.73337369 5.60623053 0.73337369 5.60623053 -3 4 C-2.01 3.34 -1.02 2.68 0 2 C0 1.34 0 0.68 0 0 Z " fill="#B90B33" transform="translate(91,117)"/>
<path d="M0 0 C6.26418531 1.48362284 10.91513505 5.24162156 16 9 C11.26551438 9 5.9218737 7.75983705 2 5 C0.75 2.375 0.75 2.375 0 0 Z " fill="#B00725" transform="translate(184,13)"/>
<path d="M0 0 C1.32 0.33 2.64 0.66 4 1 C4 1.99 4 2.98 4 4 C5.32 4.33 6.64 4.66 8 5 C8 5.66 8 6.32 8 7 C10.97 7.495 10.97 7.495 14 8 C14 9.65 14 11.3 14 13 C10.87311213 11.58378621 8.46099085 9.87668024 5.875 7.625 C5.19179687 7.03976563 4.50859375 6.45453125 3.8046875 5.8515625 C1.99345245 3.99328239 1.01347365 2.3717373 0 0 Z " fill="#BD0E35" transform="translate(103,120)"/>
<path d="M0 0 C6.00375468 5.84149104 8.30688606 8.68263278 9 17 C8.34 16.67 7.68 16.34 7 16 C6.375 13.4375 6.375 13.4375 6 11 C5.38125 10.938125 4.7625 10.87625 4.125 10.8125 C2 10 2 10 0.75 7.75 C0.00546511 5.02003872 -0.1607411 2.81296916 0 0 Z " fill="#CB062B" transform="translate(208,32)"/>
<path d="M0 0 C1.56135347 3.12270693 0.19938014 5.30517558 -0.8125 8.5625 C-1.16957031 9.73941406 -1.52664062 10.91632813 -1.89453125 12.12890625 C-3 15 -3 15 -5 16 C-5 15.34 -5 14.68 -5 14 C-5.99 14.33 -6.98 14.66 -8 15 C-7.34 13.68 -6.68 12.36 -6 11 C-5.34 11 -4.68 11 -4 11 C-4.33 8.69 -4.66 6.38 -5 4 C-4.01 3.67 -3.02 3.34 -2 3 C-1.34 2.01 -0.68 1.02 0 0 Z " fill="#D83F63" transform="translate(88,55)"/>
<path d="M0 0 C2 1 2 1 4 3 C4.33 2.34 4.66 1.68 5 1 C5 4.51716303 4.17554415 5.37121748 2 8 C0.35 7.67 -1.3 7.34 -3 7 C-2.67 5.35 -2.34 3.7 -2 2 C-1.34 2 -0.68 2 0 2 C0 1.34 0 0.68 0 0 Z " fill="#EB557B" transform="translate(95,36)"/>
<path d="M0 0 C2.40569876 0.84907015 4.77015214 1.76881339 7.125 2.75 C7.125 3.41 7.125 4.07 7.125 4.75 C10.095 5.245 10.095 5.245 13.125 5.75 C9.0404674 7.47251754 5.75526304 5.82280563 1.875 4.3125 C1.2253125 4.06951172 0.575625 3.82652344 -0.09375 3.57617188 C-1.69116817 2.97714006 -3.28360594 2.36485679 -4.875 1.75 C-1.875 -0.25 -1.875 -0.25 0 0 Z " fill="#A70B1C" transform="translate(120.875,154.25)"/>
<path d="M0 0 C1.65 0 3.3 0 5 0 C5 0.66 5 1.32 5 2 C7.31 2.33 9.62 2.66 12 3 C12 3.66 12 4.32 12 5 C12.66 5.33 13.32 5.66 14 6 C13.67 6.66 13.34 7.32 13 8 C7.73691968 6.58795406 4.2437012 4.31008693 0 1 C0 0.67 0 0.34 0 0 Z " fill="#B20823" transform="translate(103,147)"/>
<path d="M0 0 C7.5 4.5 7.5 4.5 15 9 C12.07175348 9.97608217 10.04386724 10.08226668 7 10 C6.67 10.66 6.34 11.32 6 12 C6 8 6 8 7 7 C6.030625 6.5875 5.06125 6.175 4.0625 5.75 C1 4 1 4 0.125 1.8125 C0.08375 1.214375 0.0425 0.61625 0 0 Z " fill="#B4072B" transform="translate(105,134)"/>
<path d="M0 0 C0.33 0.66 0.66 1.32 1 2 C0.01 2 -0.98 2 -2 2 C-2.33 2.99 -2.66 3.98 -3 5 C-4.70703125 5.984375 -4.70703125 5.984375 -6.8125 6.75 C-7.49957031 7.01296875 -8.18664062 7.2759375 -8.89453125 7.546875 C-11.28143969 8.06056958 -12.70637773 7.76282269 -15 7 C-10.0999919 3.66544904 -5.79355528 1.32768975 0 0 Z " fill="#910827" transform="translate(194,136)"/>
<path d="M0 0 C-0.57344937 2.86724686 -0.8614515 3.8614515 -3 6 C-3.99 6.66 -4.98 7.32 -6 8 C-6.97110486 4.97878489 -7.13617383 2.99536737 -6 0 C-3.50907189 -1.24546405 -2.58919267 -0.7767578 0 0 Z " fill="#F63564" transform="translate(104,55)"/>
<path d="M0 0 C0.99 0.33 1.98 0.66 3 1 C3 1.66 3 2.32 3 3 C3.99 3.33 4.98 3.66 6 4 C1.05 5.65 -3.9 7.3 -9 9 C-9 8.34 -9 7.68 -9 7 C-8.01 7 -7.02 7 -6 7 C-6 6.34 -6 5.68 -6 5 C-4.68 5 -3.36 5 -2 5 C-2 3.68 -2 2.36 -2 1 C-1.34 0.67 -0.68 0.34 0 0 Z " fill="#DC5D80" transform="translate(127,16)"/>
<path d="M0 0 C0.99 0.33 1.98 0.66 3 1 C3 1.66 3 2.32 3 3 C3.66 3 4.32 3 5 3 C5.33 3.99 5.66 4.98 6 6 C4.02 6.66 2.04 7.32 0 8 C-3 3.25 -3 3.25 -3 1 C-2.34 1 -1.68 1 -1 1 C-1 1.66 -1 2.32 -1 3 C-0.34 3 0.32 3 1 3 C0.67 2.01 0.34 1.02 0 0 Z " fill="#CA0835" transform="translate(99,108)"/>
<path d="M0 0 C5.28 0.33 10.56 0.66 16 1 C16 1.33 16 1.66 16 2 C7.09 2.99 7.09 2.99 -2 4 C-1.34 2.68 -0.68 1.36 0 0 Z " fill="#D96080" transform="translate(136,15)"/>
<path d="M0 0 C1.32 0.99 2.64 1.98 4 3 C3.34 4.98 2.68 6.96 2 9 C0.68 8.67 -0.64 8.34 -2 8 C-1.125 1.125 -1.125 1.125 0 0 Z " fill="#FC4871" transform="translate(84,45)"/>
<path d="M0 0 C2.62386487 3.06117568 3 3.73173127 3 8 C2.67 8.99 2.34 9.98 2 11 C1.34 11 0.68 11 0 11 C-0.33 11.66 -0.66 12.32 -1 13 C-1 12.34 -1 11.68 -1 11 C-1.66 11 -2.32 11 -3 11 C-3 10.01 -3 9.02 -3 8 C-2.01 8 -1.02 8 0 8 C0 5.36 0 2.72 0 0 Z " fill="#F4436E" transform="translate(155,19)"/>
<path d="M0 0 C0 0.33 0 0.66 0 1 C-1.08539063 1.06058594 -2.17078125 1.12117187 -3.2890625 1.18359375 C-4.73438486 1.26806064 -6.17969682 1.35270551 -7.625 1.4375 C-8.33785156 1.47681641 -9.05070313 1.51613281 -9.78515625 1.55664062 C-13.91803682 1.80309681 -17.92269024 2.23470053 -22 3 C-21.67 2.01 -21.34 1.02 -21 0 C-14.33020717 -2.22326428 -6.84416749 -1.01395074 0 0 Z " fill="#FE6A94" transform="translate(152,11)"/>
<path d="M0 0 C1.25541557 3.76624671 0.37061958 5.37188934 -1 9 C-2.65 9.33 -4.3 9.66 -6 10 C-4.6302836 6.00499382 -2.74277578 3.19990508 0 0 Z " fill="#CA2350" transform="translate(104,45)"/>
<path d="M0 0 C2.0625 0.4375 2.0625 0.4375 4 1 C3.814375 1.598125 3.62875 2.19625 3.4375 2.8125 C2.77906313 5.16408762 2.77906313 5.16408762 4 8 C3.01 8 2.02 8 1 8 C1 7.34 1 6.68 1 6 C0.34 6 -0.32 6 -1 6 C-1.042721 4.33388095 -1.04063832 2.66617115 -1 1 C-0.67 0.67 -0.34 0.34 0 0 Z " fill="#EF2652" transform="translate(156,48)"/>
<path d="M0 0 C2 1 2 1 2 1 Z M-1 1 C-0.34 2.32 0.32 3.64 1 5 C-2.06117568 7.62386487 -2.73173127 8 -7 8 C-5.52307692 3.32307692 -5.52307692 3.32307692 -2.875 1.6875 C-2.25625 1.460625 -1.6375 1.23375 -1 1 Z " fill="#EC5F84" transform="translate(117,20)"/>
<path d="M0 0 C0.66 0.33 1.32 0.66 2 1 C1.67 2.65 1.34 4.3 1 6 C-0.98 6 -2.96 6 -5 6 C-5 5.01 -5 4.02 -5 3 C-2.625 1.25 -2.625 1.25 0 0 Z " fill="#F53F6B" transform="translate(110,42)"/>
<path d="M0 0 C6.61085476 0.48969295 11.94977014 2.33442742 18 5 C14.85577687 5.87776229 13.13317747 5.97911796 10 5 C9.29875 4.855625 8.5975 4.71125 7.875 4.5625 C6 4 6 4 4 2 C2.68252676 1.30251417 1.35085807 0.63040043 0 0 Z " fill="#A20B21" transform="translate(166,7)"/>
<path d="M0 0 C0.99 0.66 1.98 1.32 3 2 C1.23494565 2.86604534 -0.53728074 3.71748642 -2.3125 4.5625 C-3.79169922 5.27599609 -3.79169922 5.27599609 -5.30078125 6.00390625 C-8 7 -8 7 -11 6 C-10.360625 5.896875 -9.72125 5.79375 -9.0625 5.6875 C-8.381875 5.460625 -7.70125 5.23375 -7 5 C-6.67 4.01 -6.34 3.02 -6 2 C-3.125 0.6875 -3.125 0.6875 0 0 Z " fill="#BD0E38" transform="translate(176,134)"/>
<path d="M0 0 C0.33 0 0.66 0 1 0 C1.12375 0.94875 1.2475 1.8975 1.375 2.875 C1.71687177 6.08667191 1.71687177 6.08667191 4 8 C4.1953125 10.3828125 4.1953125 10.3828125 4.125 13.125 C4.10695313 14.03507812 4.08890625 14.94515625 4.0703125 15.8828125 C4.03550781 16.93082031 4.03550781 16.93082031 4 18 C0.26790462 12.40185694 -0.27269478 6.54467462 0 0 Z " fill="#AF0B27" transform="translate(71,91)"/>
<path d="M0 0 C-1 2 -1 2 -2.5625 2.625 C-6.06398181 3.16368951 -9.45806833 3.05903219 -13 3 C-9.25 0 -9.25 0 -7 0 C-4.3333581 -1.33332095 -2.83319697 -0.67102033 0 0 Z " fill="#C00526" transform="translate(177,156)"/>
<path d="M0 0 C0.99 0.33 1.98 0.66 3 1 C-0.36423277 3.96052484 -3.69159287 4.92289822 -8 6 C-8.66 5.34 -9.32 4.68 -10 4 C-6.3558226 1.5705484 -4.28758728 1.83820425 0 2 C0 1.34 0 0.68 0 0 Z " fill="#B30624" transform="translate(196,145)"/>
<path d="M0 0 C0.99 0.33 1.98 0.66 3 1 C2.67 3.31 2.34 5.62 2 8 C0.68 8.33 -0.64 8.66 -2 9 C-1.34 6.03 -0.68 3.06 0 0 Z " fill="#C00D2B" transform="translate(74,59)"/>
<path d="M0 0 C0.99 0.33 1.98 0.66 3 1 C0.03 5.95 0.03 5.95 -3 11 C-3.66 10.01 -4.32 9.02 -5 8 C-4.125 5.3125 -4.125 5.3125 -3 3 C-2.01 3 -1.02 3 0 3 C0 2.01 0 1.02 0 0 Z " fill="#D94A6C" transform="translate(93,44)"/>
<path d="M0 0 C0.66 0.33 1.32 0.66 2 1 C1.01 2.32 0.02 3.64 -1 5 C-0.67 5.66 -0.34 6.32 0 7 C-2.97 7 -5.94 7 -9 7 C-6.16032769 4.16032769 -3.35997108 2.1653147 0 0 Z " fill="#F64871" transform="translate(122,33)"/>
<path d="M0 0 C-2.77280706 3.08089673 -5.06326356 4.68775452 -9 6 C-9 3 -9 3 -7.875 1.3125 C-5.23540902 -0.53521368 -3.14195927 -0.20946395 0 0 Z " fill="#C11039" transform="translate(188,129)"/>
<path d="M0 0 C-0.75 1.9375 -0.75 1.9375 -2 4 C-4 4.8125 -4 4.8125 -6 5 C-6.66 4.67 -7.32 4.34 -8 4 C-7.67 3.01 -7.34 2.02 -7 1 C-2.25 0 -2.25 0 0 0 Z " fill="#DF0434" transform="translate(146,136)"/>
<path d="M0 0 C0.66 0.33 1.32 0.66 2 1 C2 2.32 2 3.64 2 5 C1.34 5 0.68 5 0 5 C0 5.99 0 6.98 0 8 C-0.66 8 -1.32 8 -2 8 C-2.33 8.66 -2.66 9.32 -3 10 C-3.33 8.68 -3.66 7.36 -4 6 C-3.34 5.67 -2.68 5.34 -2 5 C-1.6278958 3.67696283 -1.29369827 2.34262065 -1 1 C-0.67 0.67 -0.34 0.34 0 0 Z " fill="#BE0523" transform="translate(213,123)"/>
<path d="M0 0 C0.66 0 1.32 0 2 0 C2 2.31 2 4.62 2 7 C0.68 7.33 -0.64 7.66 -2 8 C-2.125 5.125 -2.125 5.125 -2 2 C-1.34 1.34 -0.68 0.68 0 0 Z " fill="#F8507C" transform="translate(158,16)"/>
<path d="M0 0 C-0.99 0.33 -1.98 0.66 -3 1 C-4.20882096 3.00016466 -4.20882096 3.00016466 -5 5 C-6.65 4.01 -8.3 3.02 -10 2 C-6.80505194 -1.19494806 -4.22040044 -1.35655728 0 0 Z " fill="#F85A85" transform="translate(134,11)"/>
<path d="M0 0 C0 0.99 0 1.98 0 3 C-5.28 2.67 -10.56 2.34 -16 2 C-16 1.67 -16 1.34 -16 1 C-10.65097076 0.40801257 -5.39115154 -0.14187241 0 0 Z " fill="#D71846" transform="translate(160,7)"/>
<path d="M0 0 C4.12751449 0.60698743 7.3321148 2.03810791 11 4 C11 4.66 11 5.32 11 6 C6.95743617 4.77782954 3.50711041 3.37245704 0 1 C0 0.67 0 0.34 0 0 Z " fill="#BE163E" transform="translate(117,133)"/>
<path d="M0 0 C2 1 4 2 6 3 C6 3.66 6 4.32 6 5 C5.0925 4.814375 4.185 4.62875 3.25 4.4375 C0.31685676 4.04265379 -1.2644657 4.05308428 -4 5 C-2.68 3.35 -1.36 1.7 0 0 Z " fill="#E10B3D" transform="translate(97,129)"/>
<path d="M0 0 C0.66 0.33 1.32 0.66 2 1 C3.04976964 4.14930893 3.10131595 6.38814456 3.0625 9.6875 C3.05347656 10.68136719 3.04445312 11.67523438 3.03515625 12.69921875 C3.02355469 13.45847656 3.01195312 14.21773437 3 15 C2.67 15 2.34 15 2 15 C1.87625 13.80375 1.7525 12.6075 1.625 11.375 C1.17674946 7.72403187 0.29553163 4.45475101 -1 1 C-0.67 0.67 -0.34 0.34 0 0 Z " fill="#BA0624" transform="translate(224,63)"/>
<path d="M0 0 C1.13732426 3.40401948 0.83989957 5.77456664 0.0625 9.25 C-0.13214844 10.14203125 -0.32679687 11.0340625 -0.52734375 11.953125 C-0.68332031 12.62859375 -0.83929688 13.3040625 -1 14 C-1.33 14 -1.66 14 -2 14 C-3.32854177 8.0819503 -2.66464729 5.22270869 0 0 Z " fill="#E52954" transform="translate(95,64)"/>
<path d="M0 0 C2.96175123 0.61277612 4.38058783 1.25372522 7 3 C7 4.32 7 5.64 7 7 C6.01 7.33 5.02 7.66 4 8 C2 5 2 5 2 2 C1.34 1.34 0.68 0.68 0 0 Z " fill="#E2093D" transform="translate(184,18)"/>
<path d="M0 0 C0 0.33 0 0.66 0 1 C-3.96 1 -7.92 1 -12 1 C-7.03483464 -2.31011024 -5.70515444 -1.79606714 0 0 Z " fill="#DA3F65" transform="translate(129,48)"/>
<path d="M0 0 C-1.33333333 0.66666667 -2.66666667 1.33333333 -4 2 C-4.639375 2.391875 -5.27875 2.78375 -5.9375 3.1875 C-8.61798826 4.24344992 -10.27167933 3.75786685 -13 3 C-8.8341563 0.22277086 -4.9360889 -1.89849573 0 0 Z " fill="#AA0C2B" transform="translate(133,8)"/>
<path d="M0 0 C0.99 0 1.98 0 3 0 C3 0.66 3 1.32 3 2 C3.66 2.33 4.32 2.66 5 3 C4.67 3.66 4.34 4.32 4 5 C3.34 5 2.68 5 2 5 C1.67 5.99 1.34 6.98 1 8 C1 7.01 1 6.02 1 5 C0.34 4.67 -0.32 4.34 -1 4 C-0.67 2.68 -0.34 1.36 0 0 Z " fill="#E00536" transform="translate(193,113)"/>
<path d="M0 0 C0.99 0 1.98 0 3 0 C2.67 1.98 2.34 3.96 2 6 C0.68 5.34 -0.64 4.68 -2 4 C-1 1 -1 1 0 0 Z " fill="#DD2E59" transform="translate(133,48)"/>
<path d="M0 0 C2.93200474 2.85276137 5.64315404 5.65079784 8 9 C7.67 9.66 7.34 10.32 7 11 C6.7525 10.38125 6.505 9.7625 6.25 9.125 C5.18261901 6.84456841 5.18261901 6.84456841 2.9375 6.0625 C2.298125 5.711875 1.65875 5.36125 1 5 C0.25 2.375 0.25 2.375 0 0 Z " fill="#9B0A1F" transform="translate(208,30)"/>
<path d="M0 0 C2.875 -0.125 2.875 -0.125 6 0 C6.66 0.66 7.32 1.32 8 2 C7.67 2.99 7.34 3.98 7 5 C4.49642139 4.1654738 2.33214148 3.20628008 0 2 C0 1.34 0 0.68 0 0 Z " fill="#CF062C" transform="translate(103,145)"/>
<path d="M0 0 C0.66 0 1.32 0 2 0 C1.67 1.32 1.34 2.64 1 4 C1.66 4.33 2.32 4.66 3 5 C2.195625 5.12375 1.39125 5.2475 0.5625 5.375 C-0.7059375 5.684375 -0.7059375 5.684375 -2 6 C-2.33 6.66 -2.66 7.32 -3 8 C-2.45276317 4.62537285 -1.9451 2.91765 0 0 Z " fill="#D80B38" transform="translate(214,112)"/>
<path d="M0 0 C0.66 0.99 1.32 1.98 2 3 C1.5390625 5.04296875 1.5390625 5.04296875 0.625 7.1875 C0.32851562 7.90292969 0.03203125 8.61835937 -0.2734375 9.35546875 C-0.51320313 9.89816406 -0.75296875 10.44085938 -1 11 C-1.33 11 -1.66 11 -2 11 C-2.25 3.375 -2.25 3.375 0 0 Z " fill="#E51E4C" transform="translate(94,73)"/>
<path d="M0 0 C3.53372712 1.96318174 6.24479785 4.04070881 9 7 C2.29787234 5.06382979 2.29787234 5.06382979 0 2 C0 1.34 0 0.68 0 0 Z " fill="#9D0B2B" transform="translate(105,134)"/>
<path d="M0 0 C0.66 0 1.32 0 2 0 C2.33 0.99 2.66 1.98 3 3 C1.35 4.32 -0.3 5.64 -2 7 C-1.125 1.125 -1.125 1.125 0 0 Z " fill="#C40A35" transform="translate(190,122)"/>
<path d="M0 0 C3.77545388 1.09068668 6.47043472 1.9083091 9 5 C6.69 5 4.38 5 2 5 C1.34 3.35 0.68 1.7 0 0 Z " fill="#A1081F" transform="translate(184,13)"/>
<path d="M0 0 C2.97 0.495 2.97 0.495 6 1 C6 1.99 6 2.98 6 4 C4.35 4 2.7 4 1 4 C0.67 2.68 0.34 1.36 0 0 Z " fill="#FC517A" transform="translate(165,12)"/>
<path d="M0 0 C-1.26418246 0.69965443 -2.53665402 1.38434763 -3.8125 2.0625 C-4.52019531 2.44535156 -5.22789062 2.82820312 -5.95703125 3.22265625 C-8 4 -8 4 -11 3 C-8.15930939 0.15930939 -3.81147953 -1.90573977 0 0 Z " fill="#8F0711" transform="translate(187,154)"/>
<path d="M0 0 C0.33 0.99 0.66 1.98 1 3 C2.32 2.67 3.64 2.34 5 2 C5.33 4.31 5.66 6.62 6 9 C1.3125 5.484375 1.3125 5.484375 0 4 C0 2.68 0 1.36 0 0 Z " fill="#E30C40" transform="translate(86,122)"/>
<path d="M0 0 C0.33 0 0.66 0 1 0 C1 1.98 1 3.96 1 6 C0.01 6.495 0.01 6.495 -1 7 C-1 6.34 -1 5.68 -1 5 C-1.99 5.33 -2.98 5.66 -4 6 C-3.34 4.68 -2.68 3.36 -2 2 C-1.34 2 -0.68 2 0 2 C0 1.34 0 0.68 0 0 Z " fill="#E0355D" transform="translate(84,64)"/>
<path d="M0 0 C2.31 0.66 4.62 1.32 7 2 C7 2.99 7 3.98 7 5 C4.03824877 4.38722388 2.61941217 3.74627478 0 2 C0 1.34 0 0.68 0 0 Z " fill="#CD092C" transform="translate(177,11)"/>
<path d="M0 0 C1.231394 3.69418201 0.64432764 6.2056261 0 10 C-0.66 9.67 -1.32 9.34 -2 9 C-1.34 6.03 -0.68 3.06 0 0 Z " fill="#DB2851" transform="translate(114,55)"/>
<path d="M0 0 C2.475 0.495 2.475 0.495 5 1 C5 1.66 5 2.32 5 3 C4.34 3 3.68 3 3 3 C3 3.66 3 4.32 3 5 C2.34 5 1.68 5 1 5 C0.67 5.66 0.34 6.32 0 7 C0 4.69 0 2.38 0 0 Z " fill="#FA3C69" transform="translate(112,48)"/>
<path d="M0 0 C2.0625 0.4375 2.0625 0.4375 4 1 C2.71034824 2.37562854 1.37310707 3.70766393 0 5 C-0.66 5 -1.32 5 -2 5 C-1.125 1.125 -1.125 1.125 0 0 Z " fill="#D1092F" transform="translate(194,21)"/>
<path d="M0 0 C4.55384615 -0.36923077 4.55384615 -0.36923077 6.8125 1.5 C7.204375 1.995 7.59625 2.49 8 3 C6 4 6 4 2.875 3.0625 C1.92625 2.711875 0.9775 2.36125 0 2 C0 1.34 0 0.68 0 0 Z " fill="#D80E3E" transform="translate(162,9)"/>
</svg>
